<?xml version="1.0" encoding="utf-8"?>
<!-- Generator: Adobe Illustrator 22.1.0, SVG Export Plug-In . SVG Version: 6.00 Build 0)  -->
<svg version="1.1" id="Layer_1" xmlns="http://www.w3.org/2000/svg" xmlns:xlink="http://www.w3.org/1999/xlink" x="0px" y="0px"
	 viewBox="0 0 79 76" style="enable-background:new 0 0 79 76;" xml:space="preserve">
<style type="text/css">
	.st0{fill:#F4F5F9;}
	.st1{fill:#FDB100;}
	.st2{opacity:0.3;}
</style>
<path class="st0" d="M39.3,0.2C45.1,1,48.7,7,53.8,10.1c4.6,2.8,10.4,3.4,14.2,7.2c3.9,3.9,5.9,9.4,7.6,14.6
	c1.9,5.6,4,11.5,3.2,17.4c-0.9,6-4.1,11.5-8.1,16.1c-3.9,4.6-8.7,8.8-14.5,10.3c-5.6,1.4-11.2-2.1-17-2.4
	c-5.4-0.3-11.1,2.7-16.1,0.5c-5-2.2-6.8-8.3-10.5-12.2C8.6,57.2,1.1,55.1,0.1,49.2c-1-6,5.6-10.5,7.7-16.1
	c1.8-4.9,1.4-10.3,3.8-14.9c2.7-5,6.1-9.7,10.8-12.8C27.5,2.1,33.4-0.7,39.3,0.2z"/>
<path class="st1" d="M51.6,32.4c-0.4,0-0.8,0.4-0.8,0.8c0,0.4,0.4,0.8,0.8,0.8c0.4,0,0.8-0.4,0.8-0.8C52.4,32.8,52,32.4,51.6,32.4z"
	/>
<path d="M57.9,29.3h-8.6l-2.5-5c-0.4-0.8-1.2-1.3-2.1-1.3h-9.1c-0.9,0-1.7,0.5-2.1,1.3l-2.5,5h-1.6v-0.8c0-1.3-1.1-2.4-2.4-2.4h-1.6
	c-1.3,0-2.4,1.1-2.4,2.4v0.8h-0.8c-1.3,0-2.4,1.1-2.4,2.4c0,2.1,0,21.2,0,22c0,1.3,1.1,2.4,2.4,2.4h35.5c1.3,0,2.4-1.1,2.4-2.4
	c0-2.1,0-21.2,0-22C60.2,30.3,59.2,29.3,57.9,29.3z M34.9,25c0.1-0.3,0.4-0.4,0.7-0.4h9.1c0.3,0,0.6,0.2,0.7,0.4l2.1,4.3H32.7
	L34.9,25z M24.7,28.5c0-0.4,0.4-0.8,0.8-0.8h1.6c0.4,0,0.8,0.4,0.8,0.8v0.8h-3.1V28.5z M21.6,37.1h9.9c-1,1.6-1.6,3.5-1.6,5.5
	c0,2,0.6,3.9,1.6,5.5h-9.9V37.1z M40.1,34c4.7,0,8.6,3.8,8.6,8.6c0,4.8-3.9,8.6-8.6,8.6c-4.7,0-8.6-3.8-8.6-8.6
	C31.5,37.8,35.4,34,40.1,34z M58.7,53.6c0,0.4-0.4,0.8-0.8,0.8H22.4c-0.4,0-0.8-0.4-0.8-0.8v-3.9h11.2c1.9,2,4.6,3.1,7.4,3.1
	c2.8,0,5.4-1.1,7.4-3.1h11.2V53.6z M58.7,48.1h-9.9c1-1.6,1.6-3.5,1.6-5.5c0-2-0.6-3.9-1.6-5.5h9.9V48.1z M58.7,35.6H47.5
	c-1.9-2-4.6-3.1-7.4-3.1c-2.8,0-5.4,1.1-7.4,3.1H21.6v-3.9c0-0.4,0.4-0.8,0.8-0.8c0.7,0,34.4,0,35.5,0c0.4,0,0.8,0.4,0.8,0.8V35.6z"
	/>
<path class="st1" d="M42.5,26.1h-4.7c-0.4,0-0.8,0.4-0.8,0.8c0,0.4,0.4,0.8,0.8,0.8h4.7c0.4,0,0.8-0.4,0.8-0.8
	C43.3,26.5,42.9,26.1,42.5,26.1z"/>
<path class="st1" d="M40.1,35.6c-3.9,0-7.1,3.2-7.1,7.1c0,3.9,3.2,7.1,7.1,7.1s7.1-3.2,7.1-7.1C47.2,38.7,44,35.6,40.1,35.6z
	 M40.1,48.1c-3,0-5.5-2.5-5.5-5.5c0-3,2.5-5.5,5.5-5.5c3,0,5.5,2.5,5.5,5.5C45.6,45.7,43.1,48.1,40.1,48.1z"/>
<g class="st2">
	<path class="st1" d="M40.1,38.7c-2.2,0-3.9,1.8-3.9,3.9c0,0.4,0.4,0.8,0.8,0.8c0.4,0,0.8-0.4,0.8-0.8c0-1.3,1.1-2.4,2.4-2.4
		c0.4,0,0.8-0.4,0.8-0.8C40.9,39.1,40.5,38.7,40.1,38.7z"/>
</g>
<path class="st1" d="M56.3,32.4h-1.6c-0.4,0-0.8,0.4-0.8,0.8c0,0.4,0.4,0.8,0.8,0.8h1.6c0.4,0,0.8-0.4,0.8-0.8
	C57.1,32.8,56.7,32.4,56.3,32.4z"/>
</svg>
