<?xml version="1.0" standalone="no"?>
<!DOCTYPE svg PUBLIC "-//W3C//DTD SVG 20010904//EN"
 "http://www.w3.org/TR/2001/REC-SVG-20010904/DTD/svg10.dtd">
<svg version="1.0" xmlns="http://www.w3.org/2000/svg"
 width="1280.000000pt" height="1270.000000pt" viewBox="0 0 1280.000000 1270.000000"
 preserveAspectRatio="xMidYMid meet">
<g transform="translate(0.000000,1270.000000) scale(0.100000,-0.100000)"
fill="#000000" stroke="none">
<path d="M10860 12697 c-3 -3 -64 -13 -135 -22 -789 -102 -1407 -658 -1556
-1403 -54 -269 -27 -648 61 -873 11 -27 20 -54 20 -59 0 -5 -224 -211 -497
-457 -274 -246 -665 -598 -868 -783 -466 -421 -1363 -1222 -1382 -1233 -11 -7
-38 14 -101 75 -237 230 -493 360 -812 414 -80 13 -140 15 -283 11 -206 -6
-301 -23 -462 -82 -103 -38 -155 -52 -155 -41 0 17 -296 928 -316 975 l-24 54
33 36 c83 91 137 241 137 375 0 255 -178 485 -426 551 -70 19 -210 21 -279 5
-159 -39 -311 -159 -378 -301 -45 -97 -60 -162 -59 -270 2 -187 92 -354 246
-457 93 -62 182 -92 297 -101 l91 -6 279 -464 c154 -255 278 -469 276 -475 -2
-6 -42 -38 -88 -70 -185 -131 -379 -362 -479 -571 -110 -231 -162 -510 -141
-756 5 -65 6 -118 1 -123 -5 -5 -183 0 -422 13 -961 50 -1222 59 -1233 41 -14
-23 -32 -6 -67 63 -115 223 -335 422 -572 517 -162 65 -212 74 -426 74 -213 0
-257 -8 -425 -73 -283 -109 -537 -374 -640 -668 -28 -80 -61 -238 -70 -333 -8
-78 22 -268 62 -393 67 -215 208 -412 398 -556 94 -71 268 -155 390 -188 92
-25 115 -27 285 -27 168 0 194 3 283 27 361 97 652 362 778 708 17 46 33 87
37 91 4 4 239 50 522 102 283 53 670 124 860 160 189 35 349 62 355 60 6 -3
24 -30 39 -62 15 -31 57 -102 93 -157 84 -127 281 -326 403 -406 223 -147 468
-233 728 -254 45 -4 84 -11 87 -15 4 -7 20 -230 55 -780 6 -85 19 -317 30
-515 38 -677 84 -1396 95 -1458 6 -33 -6 -45 -111 -112 -111 -70 -284 -245
-367 -370 -152 -231 -227 -479 -227 -755 0 -368 138 -705 395 -965 211 -214
463 -339 796 -395 145 -24 200 -25 321 -5 214 36 347 77 488 151 381 202 640
563 717 999 23 135 13 396 -21 531 -26 105 -68 218 -113 307 -75 149 -230 337
-368 447 -139 111 -352 214 -522 255 -40 10 -77 23 -82 29 -5 6 -68 209 -141
451 -72 242 -194 645 -270 895 -213 699 -393 1311 -387 1316 2 3 55 18 117 35
338 88 646 300 837 575 34 49 70 100 80 112 l18 24 410 -202 c226 -111 427
-208 447 -217 31 -12 38 -21 43 -51 18 -113 55 -192 124 -259 209 -206 547
-143 674 125 30 62 32 75 32 173 0 101 -1 108 -38 181 -125 253 -443 313 -656
124 -47 -41 -57 -46 -84 -41 -141 30 -887 207 -905 215 -22 10 -22 11 -6 47
53 122 69 169 95 270 83 326 53 683 -82 982 -24 52 -27 67 -17 77 17 17 855
481 1598 886 910 497 1398 768 1643 915 l109 65 109 -51 c278 -132 559 -189
879 -178 289 10 526 70 781 198 457 229 807 659 919 1132 27 113 60 337 60
407 0 78 -36 313 -66 427 -166 639 -715 1145 -1389 1282 -176 35 -469 64 -485
48z"/>
</g>
</svg>
