<?xml version="1.0" encoding="utf-8"?>
<!-- Generator: Adobe Illustrator 22.1.0, SVG Export Plug-In . SVG Version: 6.00 Build 0)  -->
<svg version="1.1" id="Layer_1" xmlns="http://www.w3.org/2000/svg" xmlns:xlink="http://www.w3.org/1999/xlink" x="0px" y="0px"
	 viewBox="0 0 79 76" style="enable-background:new 0 0 79 76;" xml:space="preserve">
<style type="text/css">
	.st0{fill:#F4F5F9;}
	.st1{opacity:0.36;fill:#FDB100;enable-background:new    ;}
	.st2{fill:#FDB100;}
</style>
<path class="st0" d="M39.3,0.2C45.1,1,48.7,7,53.8,10.1c4.6,2.8,10.4,3.4,14.2,7.2c3.9,3.9,5.9,9.4,7.6,14.6
	c1.9,5.6,4,11.5,3.2,17.4c-0.9,6-4.1,11.5-8.1,16.1c-3.9,4.6-8.7,8.8-14.5,10.3c-5.6,1.4-11.2-2.1-17-2.4
	c-5.4-0.3-11.1,2.7-16.1,0.5c-5-2.2-6.8-8.3-10.5-12.2C8.6,57.2,1.1,55.1,0.1,49.2c-1-6,5.6-10.5,7.7-16.1
	c1.8-4.9,1.4-10.3,3.8-14.9c2.7-5,6.1-9.7,10.8-12.8C27.5,2.1,33.4-0.7,39.3,0.2z"/>
<path class="st1" d="M48,37l-2-6h10l-1.5,4.5L54,42l2,9h-6h-5.5v-0.5l2.5-4l1-4V37z"/>
<path d="M58,21.3c-1.1-1.7-3.1-2.7-5.1-2.7h-0.3v-0.6c0-0.4-0.3-0.6-0.6-0.6c-0.4,0-0.6,0.3-0.6,0.6v0.6H29c-2.5,0-4.5,2-4.5,4.5
	v3.8c0,2,1.3,3.7,3.2,4.3v1.3c0,0.7,0.6,1.4,1.3,1.4v1.3h-1c-0.9,0-1.6,0.7-1.6,1.6c0,0.5,0.2,1,0.6,1.3v5.5c0,0.9,0.2,1.7,0.6,2.5
	c0.7,1.3,1.8,2.4,3.2,2.8v1.6h-4.5c-1.1,0-1.9,0.9-1.9,1.9c0,1.1,0.9,1.9,1.9,1.9v0.6c0,0.4,0.3,0.6,0.6,0.6h2.6
	c0.2,0,0.3-0.1,0.5-0.2l1.1-1.1h20.7l1.8,1.2c0.1,0.1,0.2,0.1,0.4,0.1h1.9c0.4,0,0.6-0.3,0.6-0.6v-3.8c0,0,0,0,0,0c0,0,0,0,0,0
	c0,0,0,0,0,0c0,0,0,0,0,0l-1.3-7.3c-0.8-4.3-0.3-8.7,1.3-12.8l1.6-2.4c0.7-1,1-2.2,1-3.4v-0.5C59.1,23.5,58.7,22.3,58,21.3z
	 M25.8,26.9V23c0-1.8,1.4-3.2,3.2-3.2h24c1.6,0,3.2,0.8,4.1,2.2c0.1,0.1,0.2,0.3,0.2,0.4h-2c-0.4,0-0.6,0.3-0.6,0.6
	c0,0.4,0.3,0.6,0.6,0.6h2.5c0.1,0.3,0.1,0.7,0.1,1V25h-2.6c-0.4,0-0.6,0.3-0.6,0.6c0,0.4,0.3,0.6,0.6,0.6h2.5
	c-0.1,0.4-0.3,0.9-0.5,1.3c0,0,0,0-0.1,0h-1.9c-0.4,0-0.6,0.3-0.6,0.6c0,0.4,0.3,0.6,0.6,0.6h1.2l-0.9,1.3H29
	C27.2,30.1,25.8,28.7,25.8,26.9z M47,36c0.3,1.3,0.5,2.6,0.5,3.9v0.6c0,3.8-1.5,7.5-4.1,10.2h-2.3V49c1.4-0.5,2.6-1.5,3.2-2.8
	c0.4-0.8,0.6-1.7,0.6-2.5v-5.5c0.7-0.5,0.8-1.5,0.3-2.2c-0.3-0.4-0.8-0.6-1.3-0.6H32.8v-1.3h3c0.8,0,1.4-0.6,1.4-1.4v-1.1h8.5L47,36
	z M36,31.4v1.1c0,0.1-0.1,0.2-0.2,0.2h-6.7c-0.1,0-0.2-0.1-0.2-0.2v-1.1H36z M30.2,33.9h1.3v1.3h-1.3V33.9z M28,36.5h16
	c0.2,0,0.3,0.1,0.3,0.3c0,0.2-0.1,0.3-0.3,0.3H28c-0.2,0-0.3-0.1-0.3-0.3C27.7,36.6,27.8,36.5,28,36.5z M28.8,45.6
	c-0.3-0.6-0.5-1.3-0.5-2v-5.2h15.4v5.2c0,0.7-0.2,1.4-0.5,2C42.5,47.1,41,48,39.3,48h-6.6C31.1,48,29.5,47.1,28.8,45.6z M32.2,49.3
	h7.7v1.3h-7.7V49.3z M55.2,54.4h-1.1l-1.8-1.2c-0.1-0.1-0.2-0.1-0.4-0.1H30.9c-0.2,0-0.3,0.1-0.5,0.2l-1.1,1.1h-1.7v-0.6
	c0-0.4-0.3-0.6-0.6-0.6h-0.6c-0.4,0-0.6-0.3-0.6-0.6c0-0.4,0.3-0.6,0.6-0.6h28.8V54.4z M53.9,44l1.2,6.6h-10
	c2.4-2.9,3.7-6.5,3.7-10.2v-0.6c0-1.4-0.2-2.8-0.6-4.2l-1.2-4.3H55C53.5,35.4,53.1,39.8,53.9,44z"/>
<path class="st2" d="M39.9,46.1c0.1,0,0.2,0,0.3-0.1c1-0.5,1.6-1.5,1.6-2.6v-0.5c0-0.4-0.3-0.6-0.6-0.6c-0.4,0-0.6,0.3-0.6,0.6v0.5
	c0,0.6-0.4,1.2-0.9,1.5c-0.3,0.2-0.4,0.5-0.3,0.9C39.4,46,39.6,46.1,39.9,46.1z"/>
<path class="st2" d="M41.1,41.6c0.4,0,0.6-0.3,0.6-0.6v-0.6c0-0.4-0.3-0.6-0.6-0.6c-0.4,0-0.6,0.3-0.6,0.6V41
	C40.5,41.3,40.8,41.6,41.1,41.6z"/>
<path class="st2" d="M50.1,27.5c1.4,0,2.6-1.1,2.6-2.6c0-1.4-1.1-2.6-2.6-2.6c-1.4,0-2.6,1.1-2.6,2.6C47.5,26.4,48.7,27.5,50.1,27.5
	z M50.1,23.7c0.7,0,1.3,0.6,1.3,1.3c0,0.7-0.6,1.3-1.3,1.3c-0.7,0-1.3-0.6-1.3-1.3C48.8,24.3,49.4,23.7,50.1,23.7z"/>
<path class="st2" d="M43.7,27.5c1.4,0,2.6-1.1,2.6-2.6c0-1.4-1.1-2.6-2.6-2.6c-1.4,0-2.6,1.1-2.6,2.6C41.1,26.4,42.3,27.5,43.7,27.5
	z M43.7,23.7c0.7,0,1.3,0.6,1.3,1.3c0,0.7-0.6,1.3-1.3,1.3c-0.7,0-1.3-0.6-1.3-1.3C42.4,24.3,43,23.7,43.7,23.7z"/>
<path class="st2" d="M30.2,22.4c0-0.4-0.3-0.6-0.6-0.6h-1.3c-0.4,0-0.6,0.3-0.6,0.6c0,0.4,0.3,0.6,0.6,0.6h1.3
	C30,23,30.2,22.8,30.2,22.4z"/>
<path class="st2" d="M32.2,23h3.2c0.4,0,0.6-0.3,0.6-0.6c0-0.4-0.3-0.6-0.6-0.6h-3.2c-0.4,0-0.6,0.3-0.6,0.6
	C31.5,22.8,31.8,23,32.2,23z"/>
</svg>
