<?xml version="1.0" encoding="utf-8"?>
<!-- Generator: Adobe Illustrator 22.1.0, SVG Export Plug-In . SVG Version: 6.00 Build 0)  -->
<svg version="1.1" id="Layer_1" xmlns="http://www.w3.org/2000/svg" xmlns:xlink="http://www.w3.org/1999/xlink" x="0px" y="0px"
	 viewBox="0 0 79 76" style="enable-background:new 0 0 79 76;" xml:space="preserve">
<style type="text/css">
	.st0{fill:#F4F5F9;}
	.st1{fill:#FDB100;}
</style>
<path class="st0" d="M39.3,0.2C45.1,1,48.7,7,53.8,10.1c4.6,2.8,10.4,3.4,14.2,7.2c3.9,3.9,5.9,9.4,7.6,14.6
	c1.9,5.6,4,11.5,3.2,17.4c-0.9,6-4.1,11.5-8.1,16.1c-3.9,4.6-8.7,8.8-14.5,10.3c-5.6,1.4-11.2-2.1-17-2.4
	c-5.4-0.3-11.1,2.7-16.1,0.5c-5-2.2-6.8-8.3-10.5-12.2C8.6,57.2,1.1,55.1,0.1,49.2c-1-6,5.6-10.5,7.7-16.1
	c1.8-4.9,1.4-10.3,3.8-14.9c2.7-5,6.1-9.7,10.8-12.8C27.5,2.1,33.4-0.7,39.3,0.2z"/>
<path d="M39.3,43.8h2.8c0.4,0,0.7-0.3,0.7-0.7s-0.3-0.7-0.7-0.7h-2.8c-0.4,0-0.7,0.3-0.7,0.7S38.9,43.8,39.3,43.8z"/>
<path class="st1" d="M37.5,25.8c-0.3-0.3-0.7-0.2-1,0.1l-7.3,8.5c-0.3,0.3-0.2,0.7,0.1,1c0.1,0.1,0.3,0.2,0.5,0.2
	c0.2,0,0.4-0.1,0.5-0.2l7.3-8.5C37.8,26.5,37.8,26.1,37.5,25.8z"/>
<path class="st1" d="M29.3,30.9c0.1,0.1,0.3,0.2,0.5,0.2c0.2,0,0.4-0.1,0.5-0.2l2-2.2c0.3-0.3,0.2-0.7-0.1-1c-0.3-0.3-0.7-0.2-1,0.1
	l-2,2.2C29,30.2,29,30.7,29.3,30.9z"/>
<path d="M58.1,56.3c-0.2-0.6-0.8-1-1.4-1H29c-0.4,0,3.2,0.3,3.2,0.7c0,0.4,0.3,0.7,0.7,0.7h23.8c0,0,0,0,0,0l2.2,6.8c0,0,0,0,0,0
	c0,0,0,0,0,0H22.5c0,0,0,0,0,0c0,0,0,0,0,0l2.2-6.8c0,0,0,0,0,0h5.1c0.4,0,23.5-0.3,23.5-0.7c0-0.4-23.2-0.7-23.5-0.7h-5.1
	c-0.6,0-1.2,0.4-1.4,1l-2.2,6.8c-0.1,0.4-0.1,0.9,0.2,1.3c0.3,0.4,0.7,0.6,1.2,0.6h36.4c0.5,0,0.9-0.2,1.2-0.6
	c0.3-0.4,0.4-0.8,0.2-1.3L58.1,56.3z"/>
<path d="M59.3,17H22.2c-1.5,0-2.8,1.3-2.8,2.8v23.8c0,1.5,1.3,2.8,2.8,2.8H36c0,1.4-0.2,3.8-0.5,5.1h-3c-0.4,0-0.7,0.3-0.7,0.7
	s0.3,0.7,0.7,0.7H49c0.4,0,0.7-0.3,0.7-0.7s-0.3-0.7-0.7-0.7h-3c-0.3-1.3-0.4-3.7-0.5-5.1h13.8c1.5,0,2.8-1.3,2.8-2.8V19.8
	C62.1,18.3,60.8,17,59.3,17z M36.9,51.5c0.3-1.6,0.4-3.9,0.5-5.1h6.7c0,1.2,0.1,3.5,0.5,5.1H36.9z M60.7,43.6c0,0.8-0.6,1.4-1.4,1.4
	H22.2c-0.8,0-1.4-0.6-1.4-1.4v-2.5h39.9L60.7,43.6z M60.7,39.7h-1.8V29.3c0-0.4-0.3-8-0.7-8c-0.4,0-0.7,7.6-0.7,8v10.4H24V21.8
	c0-0.1,0.1-0.2,0.2-0.2h33.1c0.1,0,0.2,0.1,0.2,0.2v17.6c0,0.4,0.3-8.8,0.7-8.8s0.7,5.6,0.7,5.2v-14c0-0.9-0.7-1.6-1.6-1.6H24.2
	c-0.9,0-1.6,0.7-1.6,1.6v17.9h-1.8V19.8c0-0.8,0.6-1.4,1.4-1.4h37.1c0.8,0,1.4,0.6,1.4,1.4L60.7,39.7L60.7,39.7z"/>
<path d="M29.8,58.2h-1c-0.4,0-0.7,0.3-0.7,0.7c0,0.4,0.3,0.7,0.7,0.7h1c0.4,0,0.7-0.3,0.7-0.7C30.5,58.5,30.2,58.2,29.8,58.2z"/>
<path d="M32.7,59.6h1c0.4,0,0.7-0.3,0.7-0.7c0-0.4-0.3-0.7-0.7-0.7h-1c-0.4,0-0.7,0.3-0.7,0.7C32,59.3,32.3,59.6,32.7,59.6z"/>
<path d="M36.5,59.6h1c0.4,0,0.7-0.3,0.7-0.7c0-0.4-0.3-0.7-0.7-0.7h-1c-0.4,0-0.7,0.3-0.7,0.7C35.8,59.3,36.1,59.6,36.5,59.6z"/>
<path d="M40.3,59.6h1c0.4,0,0.7-0.3,0.7-0.7c0-0.4-0.3-0.7-0.7-0.7h-1c-0.4,0-0.7,0.3-0.7,0.7C39.6,59.3,39.9,59.6,40.3,59.6z"/>
<path d="M44.1,59.6h1c0.4,0,0.7-0.3,0.7-0.7c0-0.4-0.3-0.7-0.7-0.7h-1c-0.4,0-0.7,0.3-0.7,0.7C43.4,59.3,43.7,59.6,44.1,59.6z"/>
<path d="M47.9,59.6h1c0.4,0,0.7-0.3,0.7-0.7c0-0.4-0.3-0.7-0.7-0.7h-1c-0.4,0-0.7,0.3-0.7,0.7C47.2,59.3,47.5,59.6,47.9,59.6z"/>
<path d="M51.7,59.6h1c0.4,0,0.7-0.3,0.7-0.7c0-0.4-0.3-0.7-0.7-0.7h-1c-0.4,0-0.7,0.3-0.7,0.7C51,59.3,51.3,59.6,51.7,59.6z"/>
<path d="M29.8,60.7h-1c-0.4,0-0.7,0.3-0.7,0.7c0,0.4,0.3,0.7,0.7,0.7h1c0.4,0,0.7-0.3,0.7-0.7C30.5,61,30.2,60.7,29.8,60.7z"/>
<path d="M32.7,62.1h1c0.4,0,0.7-0.3,0.7-0.7c0-0.4-0.3-0.7-0.7-0.7h-1c-0.4,0-0.7,0.3-0.7,0.7C32,61.8,32.3,62.1,32.7,62.1z"/>
<path d="M36.5,62.1h1c0.4,0,0.7-0.3,0.7-0.7c0-0.4-0.3-0.7-0.7-0.7h-1c-0.4,0-0.7,0.3-0.7,0.7C35.8,61.8,36.1,62.1,36.5,62.1z"/>
<path d="M40.3,62.1h1c0.4,0,0.7-0.3,0.7-0.7c0-0.4-0.3-0.7-0.7-0.7h-1c-0.4,0-0.7,0.3-0.7,0.7C39.6,61.8,39.9,62.1,40.3,62.1z"/>
<path d="M44.1,62.1h1c0.4,0,0.7-0.3,0.7-0.7c0-0.4-0.3-0.7-0.7-0.7h-1c-0.4,0-0.7,0.3-0.7,0.7C43.4,61.8,43.7,62.1,44.1,62.1z"/>
<path d="M47.9,62.1h1c0.4,0,0.7-0.3,0.7-0.7c0-0.4-0.3-0.7-0.7-0.7h-1c-0.4,0-0.7,0.3-0.7,0.7C47.2,61.8,47.5,62.1,47.9,62.1z"/>
<path d="M51.7,62.1h1c0.4,0,0.7-0.3,0.7-0.7c0-0.4-0.3-0.7-0.7-0.7h-1c-0.4,0-0.7,0.3-0.7,0.7C51,61.8,51.3,62.1,51.7,62.1z"/>
</svg>
