<?xml version="1.0" standalone="no"?>
<!DOCTYPE svg PUBLIC "-//W3C//DTD SVG 20010904//EN"
 "http://www.w3.org/TR/2001/REC-SVG-20010904/DTD/svg10.dtd">
<svg version="1.0" xmlns="http://www.w3.org/2000/svg"
 width="1280.000000pt" height="945.000000pt" viewBox="0 0 1280.000000 945.000000"
 preserveAspectRatio="xMidYMid meet">
<metadata>
Created by potrace 1.15, written by Peter Selinger 2001-2017
</metadata>
<g transform="translate(0.000000,945.000000) scale(0.100000,-0.100000)"
fill="#ff9800" stroke="none">
<path d="M2280 9441 c-674 -3 -1233 -10 -1243 -15 -10 -4 -21 -16 -25 -25 -4
-9 -5 -522 -2 -1141 3 -619 6 -2206 8 -3527 1 -1451 6 -2412 11 -2427 6 -13
16 -28 23 -32 9 -6 6 -10 -10 -14 -18 -4 -79 -106 -293 -490 -149 -267 -293
-528 -321 -580 -28 -52 -123 -220 -210 -375 -88 -154 -174 -304 -190 -333 -29
-52 -30 -56 -26 -160 5 -125 22 -169 77 -200 20 -11 46 -34 58 -50 14 -19 42
-37 75 -49 51 -17 252 -18 6178 -18 l6125 0 74 22 c77 23 88 30 133 78 55 58
71 102 76 206 3 80 1 104 -15 140 -24 53 -127 227 -234 394 -87 136 -569 917
-755 1222 -121 198 -123 203 -109 230 13 24 15 469 15 3433 0 2335 3 3441 11
3519 12 130 8 154 -25 177 -22 14 -405 16 -4103 18 -2243 2 -4629 0 -5303 -3z
m8930 -3531 l0 -2740 -4880 0 -4880 0 0 2740 0 2740 4880 0 4880 0 0 -2740z"/>
</g>
</svg>
