<?xml version="1.0" encoding="utf-8"?>
<!-- Generator: Adobe Illustrator 22.1.0, SVG Export Plug-In . SVG Version: 6.00 Build 0)  -->
<svg version="1.1" id="Layer_1" xmlns="http://www.w3.org/2000/svg" xmlns:xlink="http://www.w3.org/1999/xlink" x="0px" y="0px"
	 viewBox="0 0 79 76" style="enable-background:new 0 0 79 76;" xml:space="preserve">
<style type="text/css">
	.st0{fill:#F4F5F9;}
	.st1{fill:#FDB100;}
	.st2{stroke:#F4F5F9;stroke-width:0.25;}
</style>
<path class="st0" d="M39.3,0.2C45.1,1,48.7,7,53.8,10.1c4.6,2.8,10.4,3.4,14.2,7.2c3.9,3.9,5.9,9.4,7.6,14.6
	c1.9,5.6,4,11.5,3.2,17.4c-0.9,6-4.1,11.5-8.1,16.1c-3.9,4.6-8.7,8.8-14.5,10.3c-5.6,1.4-11.2-2.1-17-2.4
	c-5.4-0.3-11.1,2.7-16.1,0.5c-5-2.2-6.8-8.3-10.5-12.2C8.6,57.2,1.1,55.1,0.1,49.2c-1-6,5.6-10.5,7.7-16.1
	c1.8-4.9,1.4-10.3,3.8-14.9c2.7-5,6.1-9.7,10.8-12.8C27.5,2.1,33.4-0.7,39.3,0.2z"/>
<ellipse class="st1" cx="39.5" cy="58" rx="2.5" ry="2"/>
<rect x="34" y="16" class="st1" width="10" height="3"/>
<path class="st2" d="M50.8,55.6h0.1v-0.1V19.9v-0.1h-0.1H28.2h-0.1v0.1v35.6v0.1h0.1H50.8z M29.2,15.1h20.6c1.7,0,3.1,1.4,3.1,3.1
	v40.1c0,1.7-1.4,3.1-3.1,3.1H29.2c-1.7,0-3.1-1.4-3.1-3.1V18.2C26.1,16.5,27.5,15.1,29.2,15.1z M42.8,17.1h-6.6
	c-0.2,0-0.3,0-0.4,0.1s-0.1,0.2-0.1,0.4c0,0.2,0,0.3,0.1,0.4c0.1,0.1,0.2,0.1,0.4,0.1h6.6c0.2,0,0.3,0,0.4-0.1
	c0.1-0.1,0.1-0.2,0.1-0.4c0-0.2,0-0.3-0.1-0.4S43,17.1,42.8,17.1z M37.8,58.1c0,1,0.7,1.7,1.7,1.7s1.7-0.7,1.7-1.7
	c0-1-0.7-1.7-1.7-1.7S37.8,57.2,37.8,58.1z"/>
</svg>
