<?xml version="1.0" standalone="no"?>
<!DOCTYPE svg PUBLIC "-//W3C//DTD SVG 20010904//EN"
 "http://www.w3.org/TR/2001/REC-SVG-20010904/DTD/svg10.dtd">
<svg version="1.0" xmlns="http://www.w3.org/2000/svg"
 width="1280.000000pt" height="679.000000pt" viewBox="0 0 1280.000000 679.000000"
 preserveAspectRatio="xMidYMid meet">
<g transform="translate(0.000000,679.000000) scale(0.100000,-0.100000)"
fill="#000000" stroke="none">
<path d="M1956 6775 c-15 -11 -36 -13 -91 -8 -59 5 -87 1 -166 -21 -52 -15
-110 -31 -130 -36 -20 -6 -49 -20 -64 -32 -25 -20 -111 -128 -163 -204 -12
-19 -23 -34 -25 -34 -20 -1 -232 -102 -232 -112 0 -19 60 -44 155 -64 129 -26
120 -14 120 -164 0 -152 5 -148 -107 -98 -40 17 -74 30 -77 27 -2 -2 2 -76 9
-164 6 -88 9 -165 6 -171 -3 -7 -113 -101 -244 -210 -144 -119 -239 -206 -241
-218 -40 -227 -53 -274 -156 -570 -39 -110 -84 -254 -100 -320 l-30 -118 19
-42 c23 -52 78 -108 218 -224 73 -61 115 -102 122 -123 33 -94 67 -755 50
-985 -11 -163 -39 -290 -169 -768 -43 -160 -95 -354 -115 -431 -57 -213 -139
-415 -335 -821 l-99 -205 25 -11 c13 -6 24 -20 24 -31 0 -38 -32 -140 -72
-230 -73 -165 -103 -288 -80 -325 7 -10 136 -12 612 -10 l604 3 19 60 c28 91
33 202 10 244 -44 83 -110 97 -247 52 -114 -37 -181 -40 -243 -10 -59 29 -71
53 -44 90 12 16 26 40 31 54 11 28 24 31 60 10 14 -8 30 -14 37 -15 6 0 28 53
48 118 147 471 312 973 425 1287 72 204 146 409 163 458 21 60 35 87 46 87 24
-1 300 -356 421 -541 81 -125 123 -214 154 -331 31 -115 198 -642 289 -913
l64 -190 51 3 c47 2 52 0 56 -20 5 -21 36 -442 36 -481 0 -15 18 -17 203 -17
112 0 207 4 212 9 17 14 421 171 574 221 95 32 148 54 154 66 6 11 11 48 11
84 -1 84 -31 156 -90 210 -55 51 -85 52 -196 6 -99 -40 -188 -60 -233 -52 -35
7 -73 44 -114 110 l-23 37 21 23 c11 12 21 27 21 33 0 7 -121 292 -269 635
-252 584 -275 643 -369 938 -56 173 -119 378 -142 455 -22 77 -75 237 -116
355 -152 430 -213 617 -238 730 -31 141 -43 264 -27 274 6 4 49 -12 95 -35 67
-33 99 -43 153 -46 l68 -5 24 48 c13 27 56 142 96 256 71 203 74 209 131 270
57 62 134 203 134 245 0 11 6 27 13 38 13 17 23 15 186 -51 l172 -68 69 -73
c38 -40 76 -73 84 -73 60 0 176 216 176 329 0 66 -17 74 -130 66 -106 -7 -140
1 -176 44 -16 18 -32 25 -68 27 -41 2 -271 85 -312 112 -6 4 -23 30 -37 59
-30 58 -68 93 -103 93 -13 0 -39 -14 -58 -30 l-35 -31 -62 26 c-107 43 -160
31 -199 -45 -24 -48 -26 -107 -4 -139 9 -13 50 -39 90 -57 41 -18 74 -39 74
-46 0 -14 -132 -385 -155 -436 -13 -28 -18 -32 -42 -26 -105 25 -180 122 -208
270 -8 41 -15 129 -15 195 0 139 0 139 104 139 36 0 66 4 66 8 0 5 -36 48 -79
96 -58 63 -86 102 -101 144 -12 31 -41 97 -66 146 l-44 88 65 70 c80 84 128
149 176 237 34 63 37 66 70 63 19 -1 85 -27 147 -57 61 -30 112 -49 112 -43 0
6 -25 58 -55 116 -41 77 -54 110 -48 126 4 11 6 77 4 146 -2 125 -3 125 -37
177 -20 28 -67 81 -105 117 -38 35 -69 73 -69 83 -1 22 -17 43 -50 66 -30 21
-49 21 -74 2z"/>
<path d="M4045 4588 c-105 -182 -191 -334 -193 -337 -1 -4 22 -19 52 -33 39
-19 66 -43 94 -80 48 -65 1946 -2838 2028 -2963 232 -354 799 -643 1622 -825
928 -205 2058 -246 3032 -109 903 126 1585 380 1911 709 110 111 164 204 195
333 17 73 17 78 -1 154 -32 134 -84 223 -205 344 -123 123 -260 219 -453 316
-175 87 -296 136 -592 236 -137 47 -1834 648 -3769 1336 -1936 688 -3523 1251
-3526 1251 -3 0 -91 -149 -195 -332z"/>
</g>
</svg>
