<?xml version="1.0" encoding="utf-8"?>
<!-- Generator: Adobe Illustrator 22.1.0, SVG Export Plug-In . SVG Version: 6.00 Build 0)  -->
<svg version="1.1" id="Layer_1" xmlns="http://www.w3.org/2000/svg" xmlns:xlink="http://www.w3.org/1999/xlink" x="0px" y="0px"
	 viewBox="0 0 79 76" style="enable-background:new 0 0 79 76;" xml:space="preserve">
<style type="text/css">
	.st0{fill:#F4F5F9;}
	.st1{fill:#DE136A;}
	.st2{fill:#FDB100;}
</style>
<path class="st0" d="M39.3,0.2C45.1,1,48.7,7,53.8,10.1c4.6,2.8,10.4,3.4,14.2,7.2c3.9,3.9,5.9,9.4,7.6,14.6
	c1.9,5.6,4,11.5,3.2,17.4c-0.9,6-4.1,11.5-8.1,16.1c-3.9,4.6-8.7,8.8-14.5,10.3c-5.6,1.4-11.2-2.1-17-2.4
	c-5.4-0.3-11.1,2.7-16.1,0.5c-5-2.2-6.8-8.3-10.5-12.2C8.6,57.2,1.1,55.1,0.1,49.2c-1-6,5.6-10.5,7.7-16.1
	c1.8-4.9,1.4-10.3,3.8-14.9c2.7-5,6.1-9.7,10.8-12.8C27.5,2.1,33.4-0.7,39.3,0.2z"/>
<path class="st1" d="M64.5,38.5c1.9,0,3.4-1.5,3.4-3.4s-1.5-3.4-3.4-3.4s-3.4,1.5-3.4,3.4C61.1,36.9,62.6,38.5,64.5,38.5z
	 M64.5,32.3c1.5,0,2.8,1.2,2.8,2.8s-1.2,2.8-2.8,2.8s-2.8-1.2-2.8-2.8S63,32.3,64.5,32.3z"/>
<path class="st1" d="M66.4,35.1c0,1.1-0.8,1.9-1.9,1.9c-1,0-1.9-0.9-1.9-1.9c0-1.1,0.8-1.9,1.9-1.9C65.5,33.2,66.4,34,66.4,35.1z
	 M65.3,35.1c0-0.5-0.4-0.9-0.8-0.9c-0.5,0-0.8,0.4-0.8,0.9c0,0.5,0.4,0.9,0.8,0.9C65,36,65.3,35.6,65.3,35.1z M63.5,35.1
	c0,0.6,0.5,1.1,1,1.1c0.6,0,1-0.5,1-1.1c0-0.6-0.5-1.1-1-1.1C63.9,34,63.5,34.5,63.5,35.1z M66.2,35.1c0,1-0.7,1.7-1.7,1.7
	c-0.9,0-1.7-0.8-1.7-1.7c0-1,0.7-1.7,1.7-1.7C65.4,33.4,66.2,34.2,66.2,35.1z"/>
<path class="st1" d="M64.5,39.2c-1,0-2,0.4-2.7,1.1c-0.1,0.1-0.1,0.3,0,0.5c0.1,0.1,0.3,0.1,0.5,0c0.6-0.6,1.4-0.9,2.3-0.9
	c1.8,0,3.3,1.5,3.3,3.3c0,1.8-1.5,3.3-3.3,3.3c-1.8,0-3.3-1.5-3.3-3.3c0-0.4,0.1-0.7,0.2-1.1c0.1-0.2,0-0.4-0.2-0.4
	c-0.2-0.1-0.4,0-0.4,0.2c-0.2,0.4-0.2,0.9-0.2,1.3c0,2.2,1.8,4,4,4c2.2,0,4-1.8,4-4C68.5,41,66.7,39.2,64.5,39.2z"/>
<path class="st1" d="M64.5,40.9c1.2,0,2.2,1,2.2,2.2c0,1.2-1,2.2-2.2,2.2c-1.2,0-2.2-1-2.2-2.2C62.3,41.9,63.3,40.9,64.5,40.9z
	 M64.5,42c-0.6,0-1.1,0.5-1.1,1.1c0,0.6,0.5,1.1,1.1,1.1c0.6,0,1.1-0.5,1.1-1.1C65.6,42.5,65.1,42,64.5,42z M64.5,41.1
	c1.1,0,2,0.9,2,2c0,1.1-0.9,2-2,2s-2-0.9-2-2C62.5,42,63.4,41.1,64.5,41.1z M64.5,41.8c-0.7,0-1.3,0.6-1.3,1.3
	c0,0.7,0.6,1.3,1.3,1.3c0.7,0,1.3-0.6,1.3-1.3C65.8,42.4,65.2,41.8,64.5,41.8z"/>
<path d="M63.5,28.9h2.2c0.2,0,0.3-0.2,0.3-0.4c0-0.2-0.2-0.4-0.3-0.4h-2.2c-0.2,0-0.3,0.2-0.3,0.4C63.2,28.8,63.3,28.9,63.5,28.9z"
	/>
<path d="M65.6,29.1h-2.2c-0.3,0-0.6-0.2-0.6-0.5c0-0.3,0.3-0.5,0.6-0.5h2.2c0.3,0,0.6,0.2,0.6,0.5C66.2,28.9,65.9,29.1,65.6,29.1z
	 M65.6,28.9h-2.2c-0.2,0-0.3-0.2-0.3-0.3c0-0.2,0.2-0.3,0.3-0.3h2.2c0.2,0,0.3,0.2,0.3,0.3C66,28.8,65.8,28.9,65.6,28.9z"/>
<path d="M74.1,36.5v-1.3c0-0.6-0.3-1.2-0.8-1.6l-1.6-1.1c-0.2-0.1-0.5,0-0.5,0.3v4.8c-0.3-0.2-0.6-0.4-1-0.4v-9.4
	c0-0.7-0.6-1.3-1.3-1.3H60c-0.7,0-1.3,0.6-1.3,1.3v19.9c0,0.7,0.6,1.3,1.3,1.3h8.9c0.7,0,1.3-0.6,1.3-1.3v-7.1
	c0.9,0,1.7-0.8,1.7-1.7v-3.4l1.7,1.2C73.8,37,74.1,36.8,74.1,36.5z M66.7,27.3V29c0,0.5-0.4,0.9-0.9,0.9h-2.8
	c-0.5,0-0.9-0.4-0.9-0.9v-1.7H66.7z M68.9,48.4H60c-0.3,0-0.6-0.3-0.6-0.6V27.9c0-0.3,0.3-0.6,0.6-0.6h1.5V29c0,0.9,0.7,1.5,1.6,1.5
	h2.8c0.9,0,1.6-0.7,1.6-1.5v-1.7h1.5c0.3,0,0.6,0.3,0.6,0.6v9.5c-0.7,0.2-1.1,0.9-1.1,1.6c0,0.7,0.5,1.4,1.1,1.6v7.2
	C69.5,48.1,69.2,48.4,68.9,48.4z M70.1,40.1c-0.6,0-1.1-0.5-1.1-1.1c0-0.6,0.5-1.1,1.1-1.1s1.1,0.5,1.1,1.1
	C71.2,39.6,70.7,40.1,70.1,40.1z M73.5,35.9l-1.6-1.1v-1.3l1.1,0.7c0.3,0.2,0.6,0.6,0.6,1V35.9z"/>
<path d="M71.7,32.6l1.6,1.1c0.5,0.4,0.8,1,0.8,1.6v1.3c0,0.3-0.3,0.4-0.5,0.3l-1.7-1.2V39c0,0.9-0.7,1.7-1.7,1.7v7.1
	c0,0.7-0.6,1.3-1.3,1.3h-8.9c-0.7,0-1.3-0.6-1.3-1.3V27.9c0-0.7,0.6-1.3,1.3-1.3h8.9c0.7,0,1.3,0.6,1.3,1.3v9.4
	c0.3,0,0.6,0.1,0.8,0.2c0.1,0,0.1,0.1,0.2,0.1v-4.8C71.2,32.6,71.5,32.5,71.7,32.6z M71,37.3v-4.4c0-0.4,0.5-0.7,0.8-0.4l0,0
	l1.6,1.1c0,0,0,0,0,0c0.6,0.4,0.9,1.1,0.9,1.7v1.3c0,0.2-0.1,0.4-0.3,0.5c-0.2,0.1-0.4,0.1-0.5,0L72,36v3c0,1-0.7,1.8-1.7,1.9v6.9
	c0,0.8-0.7,1.5-1.5,1.5h-8.9c-0.8,0-1.5-0.7-1.5-1.5V27.9c0-0.8,0.7-1.5,1.5-1.5h8.9c0.8,0,1.5,0.7,1.5,1.5v9.2
	C70.6,37.1,70.8,37.2,71,37.3z M72.8,34.4L72,33.9v0.8l1.2,0.8v-0.3C73.2,34.9,73.1,34.6,72.8,34.4L72.8,34.4z M73.4,35.3
	c0-0.4-0.2-0.8-0.6-1l-1-0.7v1.3l1.6,1.1V35.3z M66.5,29v-1.5h-4.1V29c0,0.4,0.3,0.7,0.7,0.7h2.8C66.2,29.7,66.5,29.4,66.5,29z
	 M60.1,48.2h8.8c0.2,0,0.4-0.2,0.4-0.4v-7c-0.7-0.3-1.1-1-1.1-1.7c0-0.8,0.5-1.4,1.1-1.7v-9.3c0-0.2-0.2-0.4-0.4-0.4h-1.3V29
	c0,1-0.8,1.7-1.7,1.7h-2.8c-1,0-1.7-0.8-1.7-1.7v-1.5h-1.3c-0.2,0-0.4,0.2-0.4,0.4v19.9C59.7,48,59.8,48.2,60.1,48.2z M69.5,37.4
	c-0.7,0.2-1.1,0.9-1.1,1.6c0,0.7,0.5,1.4,1.1,1.6v7.2c0,0.3-0.3,0.6-0.6,0.6h-8.8c-0.3,0-0.6-0.3-0.6-0.6V27.9
	c0-0.3,0.3-0.6,0.6-0.6h1.5V29c0,0.8,0.7,1.5,1.5,1.5h2.8c0.9,0,1.5-0.7,1.5-1.5v-1.7h1.5c0.3,0,0.6,0.3,0.6,0.6V37.4z M69.2,39
	c0,0.5,0.4,0.9,0.9,0.9c0.5,0,0.9-0.4,0.9-0.9c0-0.5-0.4-0.9-0.9-0.9C69.6,38.2,69.2,38.5,69.2,39z M66.7,27.3h-4.5V29
	c0,0.5,0.4,0.9,0.9,0.9h2.8c0.5,0,0.9-0.4,0.9-0.9V27.3z M69,39c0,0.6,0.5,1.1,1.1,1.1c0.6,0,1.1-0.5,1.1-1.1c0-0.6-0.5-1.1-1.1-1.1
	C69.5,38,69,38.4,69,39z"/>
<path d="M54.3,24H16.9c-1,0-1.9,0.8-1.9,1.9v21.8c0,1,0.8,1.9,1.9,1.9H20L19,51c-0.6,0.9-0.4,2.1,0.5,2.7c0.9,0.6,2.1,0.4,2.7-0.5
	l2.5-3.7h21.6l2.5,3.7c0.6,0.9,1.9,1.1,2.7,0.4c0.9-0.6,1.1-1.8,0.5-2.7l-1-1.4h3.2c1,0,1.9-0.8,1.9-1.9V25.9
	C56.1,24.8,55.3,24,54.3,24z M21.3,52.5c-0.2,0.2-0.4,0.4-0.7,0.4c-0.5,0-0.8-0.4-0.8-0.8c0-0.2,0.1-0.3,0.1-0.5l1.4-2.1h2
	L21.3,52.5z M51.2,51.6c0.3,0.4,0.2,0.9-0.2,1.1c-0.1,0.1-0.3,0.1-0.5,0.1c-0.3,0-0.5-0.1-0.7-0.4l-2.1-3h2L51.2,51.6z M55,47.7
	c0,0.4-0.3,0.7-0.7,0.7H16.9c-0.4,0-0.7-0.3-0.7-0.7V25.9c0-0.4,0.3-0.7,0.7-0.7h37.4c0.4,0,0.7,0.3,0.7,0.7L55,47.7L55,47.7z"/>
<path d="M52.9,26.6H18.2c-0.3,0-0.6,0.3-0.6,0.6v19.2c0,0.3,0.3,0.6,0.6,0.6h34.7c0.3,0,0.6-0.3,0.6-0.6V27.2
	C53.5,26.9,53.2,26.6,52.9,26.6z M52.4,45.8H18.8V27.8h33.6L52.4,45.8L52.4,45.8z"/>
<path class="st2" d="M28.3,33.9h2.3v6.3c0,0.3,0.3,0.6,0.6,0.6c0.3,0,0.6-0.3,0.6-0.6v-6.3H34c0.3,0,0.6-0.3,0.6-0.6
	c0-0.3-0.3-0.6-0.6-0.6h-5.8c-0.3,0-0.6,0.3-0.6,0.6C27.7,33.7,27.9,33.9,28.3,33.9z"/>
<path class="st2" d="M39.4,40.4c0.1,0.3,0.5,0.4,0.7,0.3c0.1-0.1,0.2-0.2,0.3-0.3l2.9-6.8c0.1-0.3,0-0.6-0.3-0.7
	c-0.3-0.1-0.6,0-0.7,0.3c0,0,0,0,0,0l-2.4,5.6l-2.4-5.6c-0.1-0.3-0.5-0.4-0.7-0.3c-0.3,0.1-0.4,0.4-0.3,0.7L39.4,40.4z"/>
</svg>
